<svg width="380" height="115" viewBox="0 0 380 115" fill="none" xmlns="http://www.w3.org/2000/svg">
<path fill-rule="evenodd" clip-rule="evenodd" d="M235.615 89.508C213.549 105.792 181.557 114.453 154.011 114.453C115.401 114.453 80.6355 100.183 54.3245 76.4247C52.2593 74.5601 54.1016 72.0107 56.5849 73.456C84.9703 89.9741 120.072 99.9221 156.328 99.9221C180.785 99.9221 207.671 94.8465 232.408 84.3544C236.139 82.7711 239.267 86.8127 235.615 89.508" fill="white"/>
<path fill-rule="evenodd" clip-rule="evenodd" d="M244.799 79.0263C241.975 75.4116 226.14 77.3127 219.028 78.1643C216.873 78.4221 216.539 76.5419 218.481 75.1773C231.112 66.3049 251.808 68.8673 254.213 71.8361C256.639 74.8336 253.58 95.5836 241.741 105.487C239.92 107.011 238.189 106.198 238.996 104.185C241.659 97.534 247.623 82.6408 244.799 79.0263" fill="white"/>
<path fill-rule="evenodd" clip-rule="evenodd" d="M219.529 12.5044V3.88359C219.535 2.57213 220.524 1.69706 221.715 1.69973L260.352 1.69546C261.587 1.69599 262.579 2.59546 262.581 3.87306L262.579 11.2664C262.569 12.506 261.525 14.1252 259.669 16.6935L239.656 45.2684C247.085 45.094 254.944 46.2055 261.695 50.0003C263.216 50.8549 263.624 52.1231 263.744 53.3653V62.5627C263.744 63.8309 262.357 65.2971 260.9 64.534C249.007 58.3049 233.225 57.6231 220.076 64.6096C218.732 65.3257 217.325 63.8804 217.325 62.6121V53.8679C217.325 52.4695 217.352 50.0757 218.763 47.9429L241.951 14.6779L221.761 14.6741C220.528 14.6741 219.537 13.7949 219.529 12.5044Z" fill="white"/>
<path fill-rule="evenodd" clip-rule="evenodd" d="M78.5912 66.3465H66.8375C65.7188 66.2736 64.8245 65.4325 64.7344 64.3596L64.7421 4.03092C64.7421 2.82359 65.7579 1.85906 67.0104 1.85906L77.9573 1.85599C79.1031 1.91479 80.0224 2.78146 80.0953 3.88199V11.758H80.3151C83.1683 4.14079 88.5443 0.586119 95.7855 0.586119C103.137 0.586119 107.745 4.14079 111.038 11.758C113.89 4.14079 120.364 0.586119 127.276 0.586119C132.214 0.586119 137.589 2.61732 140.881 7.18772C144.612 12.2659 143.845 19.6293 143.845 26.1039L143.836 64.1747C143.836 65.3804 142.82 66.3465 141.569 66.3465H129.828C128.648 66.2711 127.718 65.3361 127.718 64.1799L127.715 32.1976C127.715 29.6585 127.935 23.3107 127.385 20.8981C126.508 16.8361 123.875 15.6935 120.474 15.6935C117.621 15.6935 114.658 17.5976 113.451 20.6449C112.244 23.6919 112.354 28.7689 112.354 32.1976V64.1747C112.354 65.3804 111.339 66.3465 110.087 66.3465H98.3464C97.1667 66.2711 96.236 65.3361 96.236 64.1799L96.224 32.1976C96.224 25.4689 97.3219 15.5669 88.9828 15.5669C80.5339 15.5669 80.8636 25.2153 80.8636 32.1976L80.8584 64.1747C80.8593 65.3804 79.8437 66.3465 78.5912 66.3465Z" fill="white"/>
<path fill-rule="evenodd" clip-rule="evenodd" d="M295.951 12.9007C287.281 12.9007 286.733 24.7064 286.733 32.07C286.733 39.4331 286.624 55.1752 295.841 55.1752C304.949 55.1752 305.387 42.4799 305.387 34.7367C305.387 29.6585 305.168 23.5648 303.632 18.7403C302.313 14.5512 299.68 12.9007 295.951 12.9007ZM295.841 0.586139C313.288 0.586139 322.723 15.5669 322.723 34.6091C322.723 53.0164 312.301 67.6173 295.841 67.6173C278.724 67.6173 269.397 52.6361 269.397 33.9747C269.397 15.1856 278.833 0.586139 295.841 0.586139" fill="white"/>
<path fill-rule="evenodd" clip-rule="evenodd" d="M345.348 66.3465H333.637C332.46 66.2711 331.528 65.3361 331.528 64.1799L331.509 3.82786C331.608 2.72466 332.583 1.85906 333.767 1.85906L344.671 1.85599C345.696 1.90853 346.543 2.60959 346.759 3.54599V12.7736H346.98C350.272 4.52159 354.879 0.586119 362.999 0.586119C368.264 0.586119 373.423 2.49025 376.715 7.69545C379.788 12.52 379.788 20.6449 379.788 26.4845V64.4455C379.655 65.5159 378.696 66.3465 377.535 66.3465H365.751C364.663 66.2763 363.785 65.4768 363.657 64.4455V31.6897C363.657 25.0883 364.425 15.4397 356.305 15.4397C353.452 15.4397 350.819 17.344 349.504 20.2637C347.859 23.9449 347.637 27.6273 347.637 31.6897V64.1747C347.616 65.3804 346.6 66.3465 345.348 66.3465" fill="white"/>
<path fill-rule="evenodd" clip-rule="evenodd" d="M200.58 66.1955C199.801 66.8935 198.68 66.9403 197.803 66.4689C193.899 63.2241 193.199 61.7241 191.065 58.6356C184.612 65.2085 180.041 67.1799 171.685 67.1799C161.789 67.1799 154.091 61.0731 154.091 48.8596C154.091 39.3173 159.259 32.8288 166.627 29.6481C173.004 26.8487 181.912 26.3403 188.729 25.5763V24.0497C188.729 21.2507 188.949 17.9424 187.3 15.5257C185.869 13.3621 183.121 12.4716 180.701 12.4716C176.219 12.4716 172.233 14.7689 171.253 19.5304C171.051 20.5893 170.277 21.6372 169.212 21.6908L157.819 20.458C156.857 20.2413 155.788 19.4695 156.065 18.0007C158.684 4.1788 171.165 0.00280348 182.352 0.00280348C188.069 0.00280348 195.547 1.52934 200.055 5.85601C205.773 11.1997 205.223 18.3247 205.223 26.0856V44.3987C205.223 49.9069 207.512 52.3236 209.66 55.2924C210.411 56.3616 210.58 57.6336 209.621 58.4143C207.22 60.4273 202.955 64.1331 200.607 66.2216L200.58 66.1955ZM188.729 37.5361C188.729 42.1169 188.839 45.9331 186.529 50.0049C184.66 53.3132 181.692 55.3487 178.392 55.3487C173.884 55.3487 171.245 51.9121 171.245 46.8236C171.245 36.8127 180.225 34.9919 188.729 34.9919V37.5361Z" fill="white"/>
<path fill-rule="evenodd" clip-rule="evenodd" d="M46.4885 66.1955C45.7099 66.8935 44.5875 66.9403 43.7109 66.4689C39.8063 63.2241 39.1068 61.7241 36.9729 58.6356C30.5208 65.2085 25.9505 67.1799 17.5937 67.1799C7.69688 67.1799 0 61.0731 0 48.8596C0 39.3173 5.16823 32.8288 12.5354 29.6481C18.9131 26.8487 27.8203 26.3403 34.6369 25.5763V24.0497C34.6369 21.2507 34.8568 17.9424 33.2084 15.5257C31.7787 13.3621 29.0287 12.4716 26.6109 12.4716C22.1276 12.4716 18.1407 14.7689 17.1631 19.5304C16.9584 20.5893 16.1864 21.6372 15.1197 21.6908L3.72812 20.458C2.76563 20.2413 1.69531 19.4695 1.97396 18.0007C4.59115 4.1788 17.0729 0.00280348 28.2593 0.00280348C33.9781 0.00280348 41.4547 1.52934 45.9636 5.85601C51.6812 11.1997 51.1317 18.3247 51.1317 26.0856V44.3987C51.1317 49.9069 53.4193 52.3236 55.5677 55.2924C56.3177 56.3616 56.4869 57.6336 55.5303 58.4143C53.1292 60.4273 48.862 64.1331 46.5156 66.2216L46.4885 66.1955ZM34.6369 37.5361C34.6369 42.1169 34.7473 45.9331 32.4375 50.0049C30.5693 53.3132 27.6005 55.3487 24.3011 55.3487C19.7932 55.3487 17.1536 51.9121 17.1536 46.8236C17.1536 36.8127 26.1344 34.9919 34.6369 34.9919V37.5361Z" fill="white"/>
</svg>
