<svg width="236" height="76" viewBox="0 0 236 76" fill="none" xmlns="http://www.w3.org/2000/svg">
<path fill-rule="evenodd" clip-rule="evenodd" d="M233.712 65.6588C234.007 65.7844 234.26 65.974 234.464 66.2469C234.967 67.1916 235.016 67.486 235.016 67.8005C235.016 68.1995 234.921 68.5989 234.735 68.9771C234.545 69.3552 234.237 69.6276 233.805 69.7745C234.168 69.9427 234.421 70.1531 234.571 70.4469C234.723 70.7197 234.799 71.1396 234.799 71.7281C234.799 72.6729 234.712 73.5973 234.739 73.7229L233.145 73.7437L233.164 72.5885L233.155 71.812C233.148 71.2869 233.055 70.9303 232.88 70.7407C232.705 70.5729 232.379 70.4891 231.897 70.4891H230.212V73.7437H228.617V65.4484H232.451C232.996 65.4484 233.419 65.5323 233.712 65.6588V65.6588ZM230.212 66.8771V69.1027H232.061C232.431 69.1027 232.705 69.0609 232.888 68.9771C233.213 68.8303 233.376 68.5151 233.376 68.0527C233.376 67.5489 233.22 67.2125 232.905 67.024C232.728 66.9401 232.464 66.8771 232.111 66.8771H230.212ZM224.713 65.4484H227.061V73.7437H225.541V68.1369L225.552 66.7719L224.072 73.7437H222.488L221.019 66.7719L221.031 68.1369V73.7437H219.509V65.4484H221.883L223.305 71.9588L224.713 65.4484" fill="white"/>
<path fill-rule="evenodd" clip-rule="evenodd" d="M88.8385 66.3937C80.2969 60.8916 68.7036 59.9255 50.0079 65.1131C30.0765 69.7964 23.4312 72.7984 14.7041 66.7719C11.3511 63.8104 10.15 59.0432 11.0469 52.176C13.1292 40.9823 18.7552 30.2093 28.7479 18.26C34.326 12.044 39.4995 6.70935 46.3328 4.56802C51.5688 3.22402 51.0792 7.34001 50.4459 7.92801C49.7771 7.92801 48.6547 8.03335 47.7864 8.60002C47.0817 9.14535 45.1479 10.9107 45.0443 13.2827C44.8948 16.916 48.6547 16.16 50.276 14.1653C52.0229 11.9187 54.6063 7.61335 52.5751 3.60268C51.7229 2.17335 50.2516 1.18668 48.4245 0.850683C42.1683 0.49335 36.3417 3.47602 30.9645 6.77336C19.2041 14.9427 9.79693 26.2613 4.47347 38.6521C1.40521 46.1281 -1.37083 56.8385 2.79013 65.5536C6.00787 71.6016 12.6891 74.8151 20.6604 74.1432C26.2521 73.5547 33.0115 71.7484 37.5584 70.6568C42.1057 69.5645 65.3803 61.5636 73.0276 75.4875C73.0276 75.4875 75.5703 70.5521 81.9251 70.4469C87.15 69.964 94.6869 71.9588 100.176 75.9907C98.3484 73.2396 93.164 69.1864 88.8385 66.3937" fill="white"/>
<path fill-rule="evenodd" clip-rule="evenodd" d="M52.3807 19.6667C48.0281 16.812 39.2787 22.272 32.2703 31.6374C25.8631 40.038 23.0959 49.8031 26.1068 54.3188C30.5869 59.6312 38.9027 51.9036 42.4391 47.7661L42.8948 47.2834C45.3 44.7006 47.1584 41.5916 48.9563 38.6099C48.9563 38.6099 50.6093 35.8797 50.688 35.7536C51.7099 35.5651 52.9396 35.2708 54.3265 34.8719C54.3068 34.9344 49.0213 43.8178 49.5604 48.2281C49.7287 49.5724 49.6005 54.4864 54.3984 55.9776C60.7927 57.0484 65.8989 52.0922 70.4036 47.6823C70.4036 47.6823 71.1708 46.9469 71.6052 46.5276C71.4953 46.9683 71.3527 47.5558 71.3527 47.5558C69.4803 54.0662 72.0031 55.4318 73.5817 55.935C78.3527 57.3219 84.0527 50.3912 84.0703 50.3912C83.9224 52.5755 83.4901 54.3812 85.7917 55.8303C87.964 56.6073 90.1625 55.4527 91.8333 54.3396C97.8521 50.0973 102.701 43.4194 106.618 37.749H104.119C104.09 37.7907 97.9552 46.6115 93.9713 48.5432C93.9651 48.5432 93.2407 48.9006 92.8219 48.6058C92.3052 48.1651 92.5088 47.1781 92.8287 46.5276C92.8495 46.4849 108.21 19.772 108.21 19.772H100.957C100.957 19.772 100.165 21.116 100.1 21.2C100.051 21.1587 99.9349 20.9693 99.8541 20.864C95.3604 14.648 85.1839 24.224 77.5229 35.3126C74.5729 39.576 70.8177 44.385 66.9235 47.85C66.9235 47.85 61.1552 53.1422 58.6901 49.3412C57.7891 47.7454 58.0661 45.414 58.574 43.8812C61.4437 35.712 66.3891 28.2987 72.0167 23.8253C73.6047 22.5867 75.3312 22.2294 76.188 22.7547C77.0041 23.2374 77.1364 24.4347 76.6197 25.2534C75.3093 25.212 74.2593 25.6107 73.4057 26.4933C71.7235 28.256 71.1396 29.9574 71.6745 31.5534C74.2713 35.25 79.4511 27.9414 79.2005 23.4894C79.1109 21.8934 78.2588 20.3813 76.9885 19.6453C75.0943 18.512 72.2041 18.8067 70.3344 19.7093C67.8312 20.6547 63.8683 23.9507 61.5557 26.5133C58.6432 29.7267 53.6489 33.2973 52.0875 32.8973C52.6 31.532 56.8188 22.9013 52.3807 19.6667ZM87.3495 32.436C88.7604 30.4827 92.8672 25.2534 93.8688 24.372C97.2355 21.4094 98.5812 22.712 98.6979 23.636C95.5552 29.264 91.8464 35.712 88.3593 41.5079C88.3667 41.487 87.2683 43.1667 87.2683 43.1667C85.7276 45.5188 84.1771 47.5349 81.6473 48.9421C81.2875 49.0469 80.6921 49.0891 80.2969 48.7954C79.8197 48.4803 79.6323 47.9552 79.6864 47.4088C79.838 45.6027 81.6765 40.0798 87.3495 32.436V32.436ZM47.8917 35.8167C47.8917 35.8167 47.8292 36.0063 47.7973 36.0688C47.7891 36.0688 44.6355 41.2136 44.6355 41.2136C42.7317 43.7547 40.3547 46.9469 37.3844 48.4803C36.5031 48.774 35.2864 48.9631 34.6661 48.1864C33.3511 46.6115 34.0287 44.4271 34.5792 42.6636L34.774 42.0328C36.3527 37.7489 38.8584 33.9693 41.2959 30.4613C41.3271 30.44 41.3943 30.42 41.4188 30.42C41.4255 30.44 41.4349 30.44 41.4396 30.4827C42.9693 33.4227 45.8385 34.7875 47.9833 35.4178C47.9969 35.4178 48.0104 35.4386 48.0104 35.4812C48.0104 35.5432 47.9751 35.6282 47.8917 35.8167V35.8167ZM50.8797 29.748C50.8667 29.7893 49.4755 32.9813 49.4755 32.9813C49.274 33.1493 48.9563 33.0667 48.5917 32.9813L47.9677 32.876C46.0063 32.268 44.5276 30.9653 44.0719 29.412C43.4427 26.388 46.026 24.0147 47.1651 23.1534C48.2563 22.3974 49.9541 21.9987 50.9407 22.776C51.5489 23.4893 51.7792 24.4134 51.7792 25.4214C51.7792 26.7867 51.3584 28.32 50.8797 29.748" fill="white"/>
<path fill-rule="evenodd" clip-rule="evenodd" d="M142.575 39.4916C141.875 37.9803 140.215 37.014 138.445 37.1188C132.7 37.6437 127.079 42.3693 124.129 49.1521C122.581 52.6385 121.735 55.5156 121.181 60.0932C122.968 58.0355 126.612 54.6541 130.747 52.8063C130.747 52.8063 131.311 48.4172 134.18 44.5109C135.265 42.8943 137.439 40.2896 139.879 40.9823C142.011 41.6973 141.261 47.5984 138.428 53.3099C136.332 57.5104 133.124 61.7109 129.877 64.6088C127.007 67.0448 122.761 69.9849 119.047 67.7167C116.707 66.3312 115.514 63.4328 115.766 59.6948C116.884 49.0891 121.711 40.0588 128.62 29.7694C135.743 20.2134 143.595 10.4067 154.173 5.17601C156.331 4.08401 158.329 3.83336 160.056 4.50536C160.056 4.50536 150.125 9.96402 145.393 20.0667C144.189 22.628 142.515 26.0933 144.2 29.16C145.081 30.756 146.648 30.8813 147.907 30.7973C153.708 29.4533 157.457 24.0347 160.519 19.08C162.295 15.32 163.873 11.5827 163.873 7.42402C163.873 6.92002 163.848 6.24801 163.805 5.74401C166.576 4.27334 172.26 6.87734 172.26 6.87734C176.701 8.34801 186.16 15.5933 189.351 16.9787C190.907 15.1733 193.463 12.4427 194.904 11.0787L192.819 9.79735C189.481 7.76001 185.955 5.82802 182.481 3.91602C174.597 -0.387983 168.177 1.12402 164.912 2.30002C163.628 2.76135 162.455 3.16135 162.455 3.16135C160.029 0.514679 156.055 0.766682 153.125 1.48135C142.591 4.50535 132.809 11.876 122.321 24.6653C114.612 34.6828 109.83 43.3355 107.28 51.8823C105.316 57.6364 104.718 66.1 109.514 71.1188C113.592 75.3817 118.998 74.4579 122.816 72.9249C131.089 68.8511 138.524 60.0724 142.228 49.9708C143.12 46.9683 144.113 42.7255 142.575 39.4916V39.4916ZM161.595 7.84401C160.5 20.4027 150.739 27.7733 148.323 28.3613C146.86 28.6547 144.361 28.0053 146.592 22.7333C149.875 15.6347 155.48 9.60802 161.496 6.52135C161.641 7.04669 161.637 7.38134 161.595 7.84401" fill="white"/>
<path fill-rule="evenodd" clip-rule="evenodd" d="M219.503 9.44003C214.251 12.4227 208.808 14.3534 202.219 13.6814C200.392 15.74 198.615 17.8613 196.975 20.0453C206.224 22.3973 216.029 17.168 221.496 12.1907C227.281 7.17203 230.248 0.850688 230.248 0.850688C230.248 0.850688 225.911 5.80669 219.503 9.44003" fill="white"/>
<path fill-rule="evenodd" clip-rule="evenodd" d="M120.266 19.772H113.377L109.492 26.3454H116.379L120.266 19.772Z" fill="white"/>
<path fill-rule="evenodd" clip-rule="evenodd" d="M202.191 67.0448C201.451 67.5489 200.409 67.1287 200.8 65.974C201.768 63.0333 205.621 56.9855 205.621 56.9855L216.351 37.8964H209.001C208.652 38.526 207.905 39.8281 207.905 39.8281C207.565 39.2609 206.548 38.0219 206.129 37.7489C204.333 36.6151 201.697 37.1609 199.88 38.1896C191.979 42.8104 186.212 51.9453 181.664 59.0645C181.664 59.0645 176.879 66.9817 174.221 67.5697C172.148 67.7375 172.36 64.9443 172.451 64.2937C173.252 59.5901 175.116 55.1161 176.993 51.0631C180.808 48.4172 185.165 44.9521 189.124 41.1511C197.715 32.94 204.957 23.636 206.016 21.5574C206.016 21.5574 204.871 21.788 203.517 21.8307C196.908 31.0493 183.383 44.4479 179.283 46.4432C181.099 42.0749 192.835 21.2213 202.821 11.2453L204.393 9.73335C206.823 7.36135 209.341 4.92401 211.303 4.52534C211.511 4.50534 211.777 4.52534 212.007 5.00934C212.095 6.85734 211.408 8.22134 210.619 9.77601L209.513 12.044C209.513 12.044 211.079 11.7493 212.108 11.4133C213.303 9.16668 214.624 6.64668 214.136 3.64401C213.973 2.67734 213.275 1.94269 212.36 1.77469C209.381 1.20802 206.133 3.41201 203.521 5.19735L203.416 5.26134C189.988 15.7827 178.645 30.9454 168.732 51.6516C168.012 52.1973 165.236 52.8479 164.764 52.5333C165.744 50.5177 166.976 47.8083 167.593 44.8683C167.701 44.0287 167.8 43.1667 167.8 42.3271C167.8 40.5208 167.365 38.8197 165.747 37.6437C163.848 36.6989 161.501 37.1401 159.92 37.8536C152.832 40.7937 147.536 48.0599 143.713 54.0453C141.657 57.8464 139.608 61.9203 139.04 66.5828C138.64 70.2369 139.455 72.5885 141.532 73.7651C143.668 74.8568 146.357 73.7229 147.412 73.1771C154.592 69.3969 159.609 61.8156 163.564 54.8849C163.721 54.8645 165.881 54.8011 167.513 54.3812C167.536 54.3812 167.544 54.3812 167.581 54.4027C167.487 54.7172 166.643 57.2369 166.643 57.2369C164.136 64.588 162.977 69.586 165.345 72.5469C168.728 76.726 174.328 72.4 178.884 66.6875C177.907 73.5339 181.455 74.6047 184.159 74.0797C187.265 73.2396 190.728 69.9219 192.333 68.2208C191.819 70.2156 191.96 73.786 194.785 74.1432C196.721 74.5 198.172 73.5136 199.851 72.6099C205.868 69.3333 213.069 58.35 214.94 55.326H212.488C209.829 59.2536 206.447 64.5459 202.191 67.0448V67.0448ZM148.181 66.2469C147.8 65.6797 147.673 65.0281 147.66 64.3573C147.587 60.2407 152.017 52.9109 155.144 48.8161C155.152 48.8161 155.152 48.8161 155.152 48.8161C156.461 51.8609 159.429 53.5625 161.221 54.3396C158.996 59.2959 151.364 69.9427 148.181 66.2469V66.2469ZM162.476 52.1552C162.264 52.3021 158.521 51.0421 157.8 47.5776C157.187 44.5948 159.24 42.2636 161.228 41.088C162.08 40.4161 163.367 40.1849 164.308 40.5208C165.183 41.1088 165.42 42.1588 165.42 43.2932C165.42 43.986 165.328 44.7005 165.248 45.3511C165.248 45.3511 165.232 45.4771 165.229 45.4979C164.605 47.8292 163.651 50.1183 162.476 52.1552V52.1552ZM192.491 64.9235C192.488 64.9235 191.781 65.5536 191.781 65.5536C190.772 66.4568 189.732 67.4224 188.48 66.9401C188.133 66.8136 187.889 66.3521 187.831 65.9948C187.773 63.4115 188.939 61.0172 190.065 58.6864L190.353 58.0776C193.6 52.6593 197.371 46.2749 202.911 41.8437C203.844 41.1719 204.857 40.6047 205.927 41.0459C206.172 41.2771 206.459 41.676 206.459 42.0749C206.459 42.2011 206.347 42.5369 206.281 42.6416C204.733 45.1407 203.26 47.7661 201.828 50.286C199.028 55.2631 196.123 60.4083 192.491 64.9235" fill="white"/>
</svg>
