<svg width="697" height="149" viewBox="0 0 697 149" fill="none" xmlns="http://www.w3.org/2000/svg">
<g clip-path="url(#clip0_1:33)">
<path d="M0 9.65223e-06H70.8057C70.8014 23.6272 70.8057 47.2543 70.8014 70.8814C47.2038 70.8814 23.6019 70.8814 0 70.8814V9.65223e-06Z" fill="white"/>
<path d="M78.0351 9.65223e-06H148.841C148.841 23.6272 148.845 47.2543 148.837 70.8814C125.239 70.8772 101.637 70.8814 78.0393 70.8814C78.0308 47.2543 78.0351 23.6272 78.0351 9.65223e-06" fill="white"/>
<path d="M638.506 27.0073C645.033 22.7544 653.466 22.3585 660.823 24.3849C660.887 28.7613 660.832 33.1419 660.853 37.5225C657.357 35.9814 653.245 34.9767 649.567 36.488C646.649 37.6459 644.914 40.643 644.459 43.64C643.911 47.4416 644.268 51.2943 644.174 55.1172C651.642 55.1343 659.109 55.1215 666.577 55.1258C666.632 50.2726 666.517 45.4152 666.641 40.5621C671.718 39.1147 676.741 37.4927 681.793 35.9686C681.835 42.3628 681.733 48.7613 681.848 55.1598C686.896 55.0874 691.948 55.1428 697 55.1258V67.5736C691.931 67.365 686.858 67.5183 681.788 67.5013C681.81 74.6575 681.793 81.8138 681.797 88.9743C681.878 92.9377 681.584 96.9224 682.048 100.873C682.329 103.202 683.175 105.782 685.356 106.986C689.009 109.034 693.645 108.14 697 105.892V118.463C692.624 120.366 687.734 120.945 683 120.609C678.51 120.277 673.857 118.642 670.927 115.066C667.542 111.026 666.671 105.556 666.602 100.439C666.564 89.4554 666.607 78.4719 666.585 67.4842C659.114 67.48 651.642 67.4757 644.174 67.4885C644.166 84.7257 644.17 101.963 644.17 119.2C639.067 119.2 633.96 119.2 628.856 119.2C628.856 101.967 628.835 84.7384 628.865 67.5055C625.314 67.4374 621.759 67.5226 618.208 67.4502C618.221 63.3591 618.238 59.2637 618.199 55.1683C621.733 55.0874 625.272 55.1215 628.814 55.147C629.073 49.7064 628.244 44.1083 629.869 38.8081C631.242 34.0231 634.296 29.7064 638.506 27.0073" fill="white"/>
<path d="M310.639 27.9013C313.727 27.4331 317.069 28.4888 319.115 30.9069C321.513 33.5548 321.955 37.7694 320.178 40.8643C318.213 44.3552 313.816 45.9772 309.984 45.1385C306.008 44.4233 302.695 40.7239 302.874 36.5987C302.759 32.2564 306.387 28.3867 310.639 27.9013" fill="white"/>
<path d="M193.28 29.8001C200.705 29.8001 208.126 29.8001 215.551 29.8001C222.483 47.4204 229.466 65.0237 236.406 82.644C238.179 87.0501 239.838 91.5073 241.696 95.8794C250.614 73.8615 259.659 51.8989 268.509 29.8511C275.649 29.7362 282.793 29.8256 289.938 29.8086C289.921 59.6043 289.929 89.4 289.933 119.196C284.779 119.183 279.629 119.238 274.479 119.166C274.535 97.1778 274.475 75.1897 274.505 53.1973C274.513 52.2097 274.479 51.222 274.411 50.2343C274.109 50.6941 273.841 51.1709 273.608 51.6647C264.758 74.1723 255.738 96.6159 246.94 119.145C243.274 119.277 239.604 119.153 235.934 119.213C226.804 96.7053 217.788 74.1467 208.705 51.6222C208.466 51.1539 208.211 50.6984 207.935 50.2599C207.748 59.8938 207.905 69.5362 207.854 79.1701C207.858 92.512 207.846 105.854 207.858 119.196C202.998 119.209 198.137 119.196 193.28 119.2C193.276 89.4 193.272 59.6 193.28 29.8001Z" fill="white"/>
<path d="M352.782 55.0662C360.173 52.9589 368.143 53.044 375.529 55.1343C377.052 55.56 378.528 56.1517 379.897 56.9563C379.812 61.8393 379.897 66.7265 379.85 71.6137C374.913 67.8376 368.649 65.4451 362.372 66.2369C357.388 66.6882 352.633 69.2765 349.652 73.308C345.821 78.3059 344.936 84.9428 345.595 91.0561C346.089 95.8411 348.066 100.622 351.783 103.793C355.644 107.229 361.058 108.446 366.11 108.063C371.102 107.489 375.814 105.373 379.85 102.418C379.893 107.046 379.829 111.673 379.884 116.301C373.624 120.03 366.118 120.992 358.953 120.639C351.621 120.251 344.311 117.472 339.004 112.312C333.237 106.748 330.108 98.8126 329.738 90.8645C329.363 82.6014 331.043 73.9806 335.793 67.0798C339.774 61.1922 345.999 57.0245 352.782 55.0662Z" fill="white"/>
<path d="M520.058 54.0912C527.139 52.8439 534.551 53.7592 541.253 56.3007C541.262 61.0006 541.253 65.6962 541.257 70.3918C536.575 67.1692 530.855 65.4365 525.174 65.6366C522.312 65.7473 519.165 66.9606 517.86 69.6851C516.822 72.3799 517.541 75.9133 520.079 77.5268C524.421 80.4344 529.601 81.669 534.1 84.2744C537.643 86.2667 541.079 88.8721 542.873 92.6269C546.246 99.6597 544.817 108.953 538.889 114.198C533.228 119.494 525.076 120.958 517.579 120.677C512.255 120.332 506.905 119.281 502.01 117.101C502.031 112.159 501.98 107.22 502.036 102.282C506.152 105.275 510.902 107.416 515.929 108.285C519.429 108.855 523.235 108.881 526.497 107.314C529.618 105.76 530.179 101.32 528.325 98.6039C526.59 96.5094 524.043 95.3557 521.64 94.2233C517.128 92.1927 512.386 90.4941 508.423 87.4502C505.638 85.2748 503.528 82.2097 502.703 78.7529C501.479 73.6571 501.861 67.9142 504.821 63.4612C508.202 58.2717 514.075 55.1598 520.058 54.0912" fill="white"/>
<path d="M414.139 56.1092C418.366 53.5677 423.737 53.3548 428.351 54.9087C428.33 60.0215 428.351 65.1343 428.338 70.2472C425.319 68.2889 421.551 67.4502 417.987 67.8121C413.641 68.3059 410.197 71.6478 408.411 75.4792C406.471 79.5362 406.106 84.1254 406.229 88.5614C406.229 98.7743 406.233 108.987 406.229 119.2C401.194 119.2 396.163 119.2 391.132 119.2C391.12 97.8547 391.149 76.5052 391.12 55.1598C396.159 55.096 401.198 55.1215 406.238 55.1471C406.216 58.8125 406.238 62.4779 406.225 66.1475C407.862 62.1586 410.299 58.2846 414.139 56.1092" fill="white"/>
<path d="M304.265 55.1471C309.342 55.1258 314.424 55.0747 319.502 55.1726C319.442 76.5137 319.497 97.859 319.476 119.2C314.407 119.2 309.338 119.2 304.273 119.2C304.26 97.8505 304.277 76.5009 304.265 55.1471Z" fill="white"/>
<path fill-rule="evenodd" clip-rule="evenodd" d="M478.455 56.5519C471.634 53.4442 463.881 53.027 456.533 53.9635C448.814 54.9384 441.3 58.574 436.401 64.7341C431.927 70.2343 429.75 77.3012 429.333 84.3127C428.717 92.5758 430.095 101.346 434.943 108.242C439.072 114.193 445.591 118.285 452.633 119.792C458.519 121.031 464.677 121.035 470.562 119.809C477.447 118.391 483.877 114.577 488.142 108.949C492.31 103.649 494.402 96.9649 494.874 90.294C495.355 83.4613 494.666 76.3859 491.829 70.0853C489.172 64.1679 484.375 59.2253 478.455 56.5519ZM473.909 70.4813C470.6 67.1309 465.701 65.8282 461.1 66.1305C457.439 66.3348 453.739 67.5736 451.026 70.1109C447.284 73.5038 445.574 78.5613 445.11 83.4783C444.6 88.8849 444.97 94.5852 447.437 99.515C449.355 103.342 452.88 106.348 457.035 107.442C461.117 108.502 465.561 108.412 469.516 106.893C472.897 105.573 475.576 102.789 477.039 99.4937C479.25 94.6065 479.467 89.1105 479.195 83.8359C478.816 79.0168 477.447 73.9636 473.909 70.4813Z" fill="white"/>
<path fill-rule="evenodd" clip-rule="evenodd" d="M601.317 57.0329C594.342 53.508 586.228 52.9929 578.586 53.9423C572.424 54.7341 566.369 57.0755 561.665 61.2092C555.924 66.1603 552.556 73.44 551.565 80.8857C550.621 88.3315 550.94 96.1731 553.972 103.142C556.881 109.979 562.622 115.53 569.528 118.251C576.345 120.937 583.923 121.239 591.098 120.077C598.433 118.864 605.382 115.002 609.924 109.06C614.776 102.921 616.864 94.9769 616.851 87.2374C616.958 82.0564 616.311 76.8031 614.47 71.9372C612.114 65.577 607.398 60.0768 601.317 57.0329ZM594.989 69.7661C591.663 66.8414 587.045 65.841 582.72 66.1432C578.484 66.3816 574.283 68.2079 571.544 71.5115C568.542 75.0492 567.253 79.7193 566.905 84.2701C566.543 88.97 566.905 93.8359 568.72 98.2293C570.23 101.916 573.096 105.122 576.796 106.688C580.224 108.166 584.085 108.429 587.751 107.88C591.166 107.378 594.474 105.743 596.698 103.061C598.905 100.392 600.071 97.0288 600.657 93.6571C601.397 89.1318 601.406 84.4702 600.53 79.9662C599.752 76.1262 598.055 72.3118 594.989 69.7661Z" fill="white"/>
<path d="M0 78.1143C23.6019 78.1228 47.2038 78.11 70.8057 78.1228C70.8099 101.75 70.8057 125.373 70.8057 149H0V78.1143Z" fill="white"/>
<path d="M78.0393 78.1228C101.637 78.1143 125.239 78.1186 148.841 78.1186C148.841 101.746 148.841 125.373 148.841 149H78.0351C78.0393 125.373 78.0308 101.746 78.0393 78.1228Z" fill="white"/>
</g>
<defs>
<clipPath id="clip0_1:33">
<rect width="697" height="149" fill="white"/>
</clipPath>
</defs>
</svg>
