<svg width="1440" height="1024" viewBox="0 0 1440 1024" fill="none" xmlns="http://www.w3.org/2000/svg">
<g clip-path="url(#clip0_7:2)">
<rect width="1440" height="1024" fill="white"/>
<rect width="1440" height="1024" fill="#3742FA"/>
<path d="M100 450.005C135.227 438.703 153.448 409.925 154.662 363.672V306.29C154.662 266.123 170.367 238.737 201.776 224.13C170.367 209.872 154.662 182.485 154.662 141.97V89.0229C154.662 39.9878 136.528 9.6451 100.26 -2.00509L110.152 -32C140.867 -23.3058 163.946 -9.13432 179.39 10.5145C194.835 29.9895 202.644 55.8112 202.817 87.9796V142.753C202.817 184.311 221.211 205.09 258 205.09V242.91C221.211 242.91 202.817 264.037 202.817 306.29V358.977C202.817 391.667 194.921 417.837 179.13 437.485C163.512 457.134 140.519 471.306 110.152 480L100 450.005Z" fill="#FF7F50"/>
<path d="M596 932L667 861L738 932L809 861L880 932L951 861L1022 932L1093 861" stroke="#7BED9F" stroke-width="20"/>
<rect x="1314.3" y="-134.787" width="450" height="450" transform="rotate(45 1314.3 -134.787)" stroke="#ECCC68" stroke-width="30"/>
<rect x="1314.27" y="331.213" width="290" height="290" transform="rotate(45 1314.27 331.213)" stroke="#FF7F50" stroke-width="30"/>
<rect x="1316.71" y="614.213" width="210" height="210" transform="rotate(45 1316.71 614.213)" stroke="#FF6B81" stroke-width="30"/>
</g>
<defs>
<clipPath id="clip0_7:2">
<rect width="1440" height="1024" fill="white"/>
</clipPath>
</defs>
</svg>
